<svg style="display:none" xmlns="http://www.w3.org/2000/svg" xmlns:xlink="http://www.w3.org/1999/xlink" version="1.1">

	<symbol id="search" stroke="currentColor" fill="currentColor" stroke-width="0" viewBox="0 0 512 512" color="#949494" height="24" width="24" xmlns="http://www.w3.org/2000/svg" style="color: rgb(148, 148, 148);"><path fill="none" stroke-miterlimit="10" stroke-width="32" d="M221.09 64a157.09 157.09 0 10157.09 157.09A157.1 157.1 0 00221.09 64z"></path><path fill="none" stroke-linecap="round" stroke-miterlimit="10" stroke-width="32" d="M338.29 338.29L448 448"></path></symbol>

	<symbol id="shopping_bag" xmlns="http://www.w3.org/2000/svg" width="11.226" height="15.657" viewBox="0 0 11.226 15.657"><path id="Path_242" data-name="Path 242" d="M24.99,131.458a.655.655,0,0,0-.65-.582H22.506v-.619a2.828,2.828,0,0,0-5.653,0v.619H14.975a.656.656,0,0,0-.649.572l-.056,10.508a.655.655,0,0,0,.65.735H24.34a.653.653,0,0,0,.643-.722Zm-3.268-.582H17.637v-.619a2.044,2.044,0,0,1,4.085,0Zm-4.476,2.106a.386.386,0,0,0,.391-.38v-.849h4.085v.849a.392.392,0,0,0,.784,0v-.849H24.14l-.054,10.062-8.914,0V131.752h1.681v.849A.386.386,0,0,0,17.246,132.981Z" transform="translate(-14.014 -127.282)" fill="#949494" stroke="#949494" stroke-width="0.5"/></symbol>

	<symbol id="menu" xmlns="http://www.w3.org/2000/svg" width="32.012" height="18.191" viewBox="0 0 32.012 18.191"><g id="Grupo_3887" data-name="Grupo 3887" transform="translate(-17 -74.779)"><path id="Caminho_3731" data-name="Caminho 3731" d="M0,0H32.012" transform="translate(17 75.529)" fill="none" stroke="#fff" stroke-width="1.5"/><path id="Caminho_3732" data-name="Caminho 3732" d="M0,0H32.012" transform="translate(17 83.875)" fill="none" stroke="#fff" stroke-width="1.5"/><path id="Caminho_3733" data-name="Caminho 3733" d="M0,0H32.012" transform="translate(17 92.22)" fill="none" stroke="#fff" stroke-width="1.5"/></g></symbol>

	<symbol id="account_circle" xmlns="http://www.w3.org/2000/svg" viewBox="0 -960 960 960" fill="currentColor"><path d="M234-276q51-39 114-61.5T480-360q69 0 132 22.5T726-276q35-41 54.5-93T800-480q0-133-93.5-226.5T480-800q-133 0-226.5 93.5T160-480q0 59 19.5 111t54.5 93Zm246-164q-59 0-99.5-40.5T340-580q0-59 40.5-99.5T480-720q59 0 99.5 40.5T620-580q0 59-40.5 99.5T480-440Zm0 360q-83 0-156-31.5T197-197q-54-54-85.5-127T80-480q0-83 31.5-156T197-763q54-54 127-85.5T480-880q83 0 156 31.5T763-763q54 54 85.5 127T880-480q0 83-31.5 156T763-197q-54 54-127 85.5T480-80Zm0-80q53 0 100-15.5t86-44.5q-39-29-86-44.5T480-280q-53 0-100 15.5T294-220q39 29 86 44.5T480-160Zm0-360q26 0 43-17t17-43q0-26-17-43t-43-17q-26 0-43 17t-17 43q0 26 17 43t43 17Zm0-60Zm0 360Z"/></symbol>
	<symbol id="close" xmlns="http://www.w3.org/2000/svg" viewBox="0 -960 960 960" fill="currentColor"><path d="m256-200-56-56 224-224-224-224 56-56 224 224 224-224 56 56-224 224 224 224-56 56-224-224-224 224Z"/></symbol>
	<symbol id="chevron-right" xmlns="http://www.w3.org/2000/svg" viewBox="0 -960 960 960" fill="currentColor"><path d="M504-480 320-664l56-56 240 240-240 240-56-56 184-184Z"/></symbol>
	<symbol id="home_pin" xmlns="http://www.w3.org/2000/svg" viewBox="0 -960 960 960" fill="currentColor"><path d="M360-440h80v-110h80v110h80v-190l-120-80-120 80v190Zm120 254q122-112 181-203.5T720-552q0-109-69.5-178.5T480-800q-101 0-170.5 69.5T240-552q0 71 59 162.5T480-186Zm0 106Q319-217 239.5-334.5T160-552q0-150 96.5-239T480-880q127 0 223.5 89T800-552q0 100-79.5 217.5T480-80Zm0-480Z"/></symbol>
	<symbol id="call" xmlns="http://www.w3.org/2000/svg" viewBox="0 -960 960 960" fill="currentColor"><path d="M798-120q-125 0-247-54.5T329-329Q229-429 174.5-551T120-798q0-18 12-30t30-12h162q14 0 25 9.5t13 22.5l26 140q2 16-1 27t-11 19l-97 98q20 37 47.5 71.5T387-386q31 31 65 57.5t72 48.5l94-94q9-9 23.5-13.5T670-390l138 28q14 4 23 14.5t9 23.5v162q0 18-12 30t-30 12ZM241-600l66-66-17-94h-89q5 41 14 81t26 79Zm358 358q39 17 79.5 27t81.5 13v-88l-94-19-67 67ZM241-600Zm358 358Z"/></symbol>
	<symbol id="local_shipping" xmlns="http://www.w3.org/2000/svg" viewBox="0 -960 960 960" fill="currentColor"><path d="M240-160q-50 0-85-35t-35-85H40v-440q0-33 23.5-56.5T120-800h560v160h120l120 160v200h-80q0 50-35 85t-85 35q-50 0-85-35t-35-85H360q0 50-35 85t-85 35Zm0-80q17 0 28.5-11.5T280-280q0-17-11.5-28.5T240-320q-17 0-28.5 11.5T200-280q0 17 11.5 28.5T240-240ZM120-360h32q17-18 39-29t49-11q27 0 49 11t39 29h272v-360H120v360Zm600 120q17 0 28.5-11.5T760-280q0-17-11.5-28.5T720-320q-17 0-28.5 11.5T680-280q0 17 11.5 28.5T720-240Zm-40-200h170l-90-120h-80v120ZM360-540Z"/></symbol>
	<symbol id="pan_zoom" xmlns="http://www.w3.org/2000/svg" viewBox="0 -960 960 960" fill="currentColor"><path d="M120-120v-240h80v104l124-124 56 56-124 124h104v80H120Zm516-460-56-56 124-124H600v-80h240v240h-80v-104L636-580Z"/></symbol>
	<symbol id="share" xmlns="http://www.w3.org/2000/svg" viewBox="0 -960 960 960" fill="currentColor"><path d="M720-80q-50 0-85-35t-35-85q0-7 1-14.5t3-13.5L322-392q-17 15-38 23.5t-44 8.5q-50 0-85-35t-35-85q0-50 35-85t85-35q23 0 44 8.5t38 23.5l282-164q-2-6-3-13.5t-1-14.5q0-50 35-85t85-35q50 0 85 35t35 85q0 50-35 85t-85 35q-23 0-44-8.5T638-672L356-508q2 6 3 13.5t1 14.5q0 7-1 14.5t-3 13.5l282 164q17-15 38-23.5t44-8.5q50 0 85 35t35 85q0 50-35 85t-85 35Zm0-640q17 0 28.5-11.5T760-760q0-17-11.5-28.5T720-800q-17 0-28.5 11.5T680-760q0 17 11.5 28.5T720-720ZM240-440q17 0 28.5-11.5T280-480q0-17-11.5-28.5T240-520q-17 0-28.5 11.5T200-480q0 17 11.5 28.5T240-440Zm480 280q17 0 28.5-11.5T760-200q0-17-11.5-28.5T720-240q-17 0-28.5 11.5T680-200q0 17 11.5 28.5T720-160Zm0-600ZM240-480Zm480 280Z"/></symbol>
	<symbol id="sell" xmlns="http://www.w3.org/2000/svg" viewBox="0 -960 960 960" fill="currentColor"><path d="M856-390 570-104q-12 12-27 18t-30 6q-15 0-30-6t-27-18L103-457q-11-11-17-25.5T80-513v-287q0-33 23.5-56.5T160-880h287q16 0 31 6.5t26 17.5l352 353q12 12 17.5 27t5.5 30q0 15-5.5 29.5T856-390ZM513-160l286-286-353-354H160v286l353 354ZM260-640q25 0 42.5-17.5T320-700q0-25-17.5-42.5T260-760q-25 0-42.5 17.5T200-700q0 25 17.5 42.5T260-640Zm220 160Z"/></symbol>
	<symbol id="check-circle" xmlns="http://www.w3.org/2000/svg" viewBox="0 -960 960 960" fill="currentColor"><path d="m424-296 282-282-56-56-226 226-114-114-56 56 170 170Zm56 216q-83 0-156-31.5T197-197q-54-54-85.5-127T80-480q0-83 31.5-156T197-763q54-54 127-85.5T480-880q83 0 156 31.5T763-763q54 54 85.5 127T880-480q0 83-31.5 156T763-197q-54 54-127 85.5T480-80Zm0-80q134 0 227-93t93-227q0-134-93-227t-227-93q-134 0-227 93t-93 227q0 134 93 227t227 93Zm0-320Z"/></symbol>
	<symbol id="error" xmlns="http://www.w3.org/2000/svg" viewBox="0 -960 960 960" fill="currentColor"><path d="M480-280q17 0 28.5-11.5T520-320q0-17-11.5-28.5T480-360q-17 0-28.5 11.5T440-320q0 17 11.5 28.5T480-280Zm-40-160h80v-240h-80v240Zm40 360q-83 0-156-31.5T197-197q-54-54-85.5-127T80-480q0-83 31.5-156T197-763q54-54 127-85.5T480-880q83 0 156 31.5T763-763q54 54 85.5 127T880-480q0 83-31.5 156T763-197q-54 54-127 85.5T480-80Zm0-80q134 0 227-93t93-227q0-134-93-227t-227-93q-134 0-227 93t-93 227q0 134 93 227t227 93Zm0-320Z"/></symbol>
	<symbol id="trash" xmlns="http://www.w3.org/2000/svg" viewBox="0 -960 960 960" fill="currentColor"><path d="M280-120q-33 0-56.5-23.5T200-200v-520h-40v-80h200v-40h240v40h200v80h-40v520q0 33-23.5 56.5T680-120H280Zm400-600H280v520h400v-520ZM360-280h80v-360h-80v360Zm160 0h80v-360h-80v360ZM280-720v520-520Z"/></symbol>

	<symbol id="add-to-cart" xmlns="http://www.w3.org/2000/svg" viewBox="0 0 25 21" fill="currentColor"><path d="M252.725 19.424a.655.655 0 00-.65-.582h-1.834v-.619a2.828 2.828 0 00-5.653 0v.619h-1.878a.656.656 0 00-.649.572l-.056 10.508a.655.655 0 00.65.735h9.42a.653.653 0 00.643-.722zm-3.268-.582h-4.085v-.619a2.044 2.044 0 014.085 0zm-4.476 2.106a.386.386 0 00.391-.38v-.849h4.085v.849a.392.392 0 00.784 0v-.849h1.634l-.054 10.062h-8.914V19.718h1.681v.849a.386.386 0 00.393.38z"></path></symbol>

	<symbol id="favorite" xmlns='http://www.w3.org/2000/svg' viewBox='0 0 14.627 13.772' fill="#949494"><path d='M2.334,146.717A3.273,3.273,0,0,0-.2,144.557a4.521,4.521,0,0,0-4.143,1.17,4.528,4.528,0,0,0-4.145-1.17,3.273,3.273,0,0,0-2.532,2.161,4.8,4.8,0,0,0,.464,4.331c1.123,1.438,5.424,6.3,5.606,6.51l.153.172h.909l.153-.172c.182-.206,4.482-5.073,5.606-6.51A4.8,4.8,0,0,0,2.334,146.717Zm-1.27,3.7c-.984,1.262-4.607,5.375-5.405,6.284-.8-.909-4.423-5.022-5.407-6.284a3.8,3.8,0,0,1-.317-3.339,2.276,2.276,0,0,1,1.76-1.519,3.43,3.43,0,0,1,3.494,1.176l.151.227h.635l.151-.227A3.43,3.43,0,0,1-.38,145.561a2.276,2.276,0,0,1,1.76,1.519A3.8,3.8,0,0,1,1.064,150.42Z' transform='translate(11.656 -144.208)' /></symbol>
</svg>
